<svg height="479pt" viewBox="0 -71 479.99277 479" width="479pt" 
    xmlns="http://www.w3.org/2000/svg">
    <path d="m351.992188 72.496094h-264v192h64l48 48 56-56h48l48-48h120v-136zm0 0" fill="#f6bf9b"/>
    <path d="m63.992188 272.496094h-56c-2.996094-.003906-5.738282-1.679688-7.105469-4.339844-1.371094-2.664062-1.136719-5.871094.601562-8.308594l36.054688-50.488281-35.199219-35.199219c-3.121094-3.125-3.121094-8.1875 0-11.3125l35.199219-35.199218-36.054688-50.503907c-1.738281-2.4375-1.972656-5.644531-.601562-8.304687 1.367187-2.664063 4.109375-4.339844 7.105469-4.34375h56v16h-40.457032l30.960938 43.351562c2.273437 3.179688 1.914062 7.539063-.847656 10.304688l-34.34375 34.34375 34.34375 34.34375c2.761718 2.765625 3.121093 7.125.847656 10.304687l-30.960938 43.351563h40.457032zm0 0" fill="#e9686a"/>
    <g fill="#fdbd40">
        <path d="m79.992188 32.496094h160v16h-160zm0 0"/>
        <path d="m255.992188 32.496094h32v16h-32zm0 0"/>
        <path d="m111.992188.496094h128v16h-128zm0 0"/>
        <path d="m255.992188 288.496094h160v16h-160zm0 0"/>
        <path d="m279.992188 320.496094h152v16h-152zm0 0"/>
        <path d="m447.992188 320.496094h32v16h-32zm0 0"/>
    </g>
    <path d="m234.335938 170.839844-37.65625 37.65625h-36.6875v-48h-16v48h-16v16h52.6875l-34.34375 34.34375 11.3125 11.3125 88-88zm0 0" fill="#eda37a"/>
</svg>